<?xml version="1.0" encoding="UTF-8" standalone="no"?>
<!-- Created with Inkscape (http://www.inkscape.org/) -->

<svg
   xmlns:dc="http://purl.org/dc/elements/1.1/"
   xmlns:cc="http://creativecommons.org/ns#"
   xmlns:rdf="http://www.w3.org/1999/02/22-rdf-syntax-ns#"
   xmlns:svg="http://www.w3.org/2000/svg"
   xmlns="http://www.w3.org/2000/svg"
   xmlns:sodipodi="http://sodipodi.sourceforge.net/DTD/sodipodi-0.dtd"
   xmlns:inkscape="http://www.inkscape.org/namespaces/inkscape"
   width="255.99998"
   height="255.99998"
   viewBox="0 0 67.733328 67.733331"
   version="1.1"
   id="svg8"
   inkscape:version="0.92.4 (5da689c313, 2019-01-14)"
   sodipodi:docname="10.svg">
  <defs
     id="defs2" />
  <sodipodi:namedview
     id="base"
     pagecolor="#ffffff"
     bordercolor="#666666"
     borderopacity="1.0"
     inkscape:pageopacity="0.0"
     inkscape:pageshadow="2"
     inkscape:zoom="0.90509668"
     inkscape:cx="-29.333208"
     inkscape:cy="-146.0068"
     inkscape:document-units="mm"
     inkscape:current-layer="layer1"
     showgrid="false"
     units="px"
     inkscape:pagecheckerboard="true"
     fit-margin-top="0"
     fit-margin-left="0"
     fit-margin-right="0"
     fit-margin-bottom="0"
     inkscape:window-width="1920"
     inkscape:window-height="1000"
     inkscape:window-x="-11"
     inkscape:window-y="-11"
     inkscape:window-maximized="1" />
  <metadata
     id="metadata5">
    <rdf:RDF>
      <cc:Work
         rdf:about="">
        <dc:format>image/svg+xml</dc:format>
        <dc:type
           rdf:resource="http://purl.org/dc/dcmitype/StillImage" />
        <dc:title />
      </cc:Work>
    </rdf:RDF>
  </metadata>
  <g
     inkscape:label="Layer 1"
     inkscape:groupmode="layer"
     id="layer1"
     transform="translate(-56.953671,-104.27436)">
    <path
       style="fill:#ffffff;stroke-width:0.15357637"
       d="M 56.953671,104.27436 H 124.687 v 67.73333 H 56.953671 Z"
       id="rect10" />
    <g
       aria-label="10"
       transform="matrix(1.3402012,0,0,1.3402012,-8.0770896,48.440598)"
       style="font-style:normal;font-weight:normal;font-size:40px;line-height:1.25;font-family:sans-serif;letter-spacing:0px;word-spacing:0px;fill:#000000;fill-opacity:1;stroke:none"
       id="flowRoot12">
      <path
         d="M 64.964844,81.002833 H 61.761719 V 56.803614 q -0.371094,0.371094 -1.09375,0.859375 -0.703125,0.46875 -1.601563,0.9375 -0.878906,0.46875 -1.875,0.878907 -0.976562,0.410156 -1.914062,0.644531 v -3.242188 q 1.054687,-0.292968 2.226562,-0.78125 1.191406,-0.507812 2.324219,-1.113281 1.152344,-0.625 2.167969,-1.289062 1.015625,-0.683594 1.757812,-1.328125 h 1.210938 z"
         style="font-style:normal;font-variant:normal;font-weight:normal;font-stretch:normal;font-family:'Segoe UI';-inkscape-font-specification:'Segoe UI'"
         id="path17" />
      <path
         d="m 92.308594,66.881739 q 0,3.515625 -0.644532,6.230469 -0.625,2.714844 -1.835937,4.589844 -1.191406,1.855469 -2.949219,2.832031 -1.738281,0.957031 -3.964844,0.957031 -2.109375,0 -3.769531,-0.917968 -1.640625,-0.9375 -2.773437,-2.714844 -1.132813,-1.777344 -1.71875,-4.355469 -0.585938,-2.597656 -0.585938,-5.9375 0,-3.671875 0.605469,-6.484375 0.625,-2.8125 1.816406,-4.707031 1.191406,-1.914063 2.949219,-2.871094 1.777344,-0.976562 4.0625,-0.976562 8.808594,0 8.808594,14.355468 z m -3.28125,0.3125 q 0,-11.953125 -5.683594,-11.953125 -5.996094,0 -5.996094,12.167969 0,11.347656 5.878906,11.347656 5.800782,0 5.800782,-11.5625 z"
         style="font-style:normal;font-variant:normal;font-weight:normal;font-stretch:normal;font-family:'Segoe UI';-inkscape-font-specification:'Segoe UI'"
         id="path19" />
    </g>
    <g
       transform="matrix(1.3402012,0,0,1.3402012,8.6230738,48.335895)"
       style="font-style:normal;font-weight:normal;font-size:40px;line-height:1.25;font-family:sans-serif;letter-spacing:0px;word-spacing:0px;fill:#000000;fill-opacity:1;stroke:none"
       id="flowRoot26" />
  </g>
</svg>
