<?xml version="1.0" encoding="UTF-8" standalone="no"?>
<!-- Created with Inkscape (http://www.inkscape.org/) -->

<svg
   xmlns:dc="http://purl.org/dc/elements/1.1/"
   xmlns:cc="http://creativecommons.org/ns#"
   xmlns:rdf="http://www.w3.org/1999/02/22-rdf-syntax-ns#"
   xmlns:svg="http://www.w3.org/2000/svg"
   xmlns="http://www.w3.org/2000/svg"
   xmlns:sodipodi="http://sodipodi.sourceforge.net/DTD/sodipodi-0.dtd"
   xmlns:inkscape="http://www.inkscape.org/namespaces/inkscape"
   width="255.99998"
   height="255.99998"
   viewBox="0 0 67.733328 67.733331"
   version="1.1"
   id="svg8"
   inkscape:version="0.92.4 (5da689c313, 2019-01-14)"
   sodipodi:docname="2.svg">
  <defs
     id="defs2" />
  <sodipodi:namedview
     id="base"
     pagecolor="#ffffff"
     bordercolor="#666666"
     borderopacity="1.0"
     inkscape:pageopacity="0.0"
     inkscape:pageshadow="2"
     inkscape:zoom="0.90509668"
     inkscape:cx="-29.333208"
     inkscape:cy="119.15824"
     inkscape:document-units="mm"
     inkscape:current-layer="layer1"
     showgrid="false"
     units="px"
     inkscape:pagecheckerboard="true"
     fit-margin-top="0"
     fit-margin-left="0"
     fit-margin-right="0"
     fit-margin-bottom="0"
     inkscape:window-width="1920"
     inkscape:window-height="1000"
     inkscape:window-x="-11"
     inkscape:window-y="-11"
     inkscape:window-maximized="1" />
  <metadata
     id="metadata5">
    <rdf:RDF>
      <cc:Work
         rdf:about="">
        <dc:format>image/svg+xml</dc:format>
        <dc:type
           rdf:resource="http://purl.org/dc/dcmitype/StillImage" />
        <dc:title />
      </cc:Work>
    </rdf:RDF>
  </metadata>
  <g
     inkscape:label="Layer 1"
     inkscape:groupmode="layer"
     id="layer1"
     transform="translate(-56.953671,-104.27436)">
    <path
       style="fill:#ffffff;stroke-width:0.15357637"
       d="M 56.953671,104.27436 H 124.687 v 67.73333 H 56.953671 Z"
       id="rect10" />
    <g
       aria-label="2"
       transform="matrix(1.3402012,0,0,1.3402012,8.2697004,48.663092)"
       style="font-style:normal;font-weight:normal;font-size:40px;line-height:1.25;font-family:sans-serif;letter-spacing:0px;word-spacing:0px;fill:#000000;fill-opacity:1;stroke:none"
       id="flowRoot12">
      <path
         d="m 65.902344,60.338771 q 0,-1.289063 -0.410157,-2.246094 -0.390625,-0.957031 -1.09375,-1.582031 -0.683593,-0.644532 -1.621093,-0.957032 -0.9375,-0.3125 -2.03125,-0.3125 -0.9375,0 -1.835938,0.253907 -0.898437,0.253906 -1.757812,0.703125 -0.839844,0.449218 -1.640625,1.074218 -0.78125,0.625 -1.464844,1.386719 v -3.4375 q 1.347656,-1.308594 3.007812,-1.992187 1.679688,-0.703125 4.082032,-0.703125 1.71875,0 3.183593,0.507812 1.464844,0.488281 2.539063,1.445313 1.074219,0.957031 1.679687,2.363281 0.625,1.40625 0.625,3.222656 0,1.660156 -0.390625,3.007813 -0.371093,1.347656 -1.152343,2.539062 -0.761719,1.191406 -1.933594,2.285156 -1.171875,1.09375 -2.753906,2.226563 -1.972657,1.40625 -3.261719,2.402344 -1.269531,0.996093 -2.03125,1.875 -0.742188,0.859375 -1.054688,1.738281 -0.292968,0.859375 -0.292968,1.992187 h 13.945312 v 2.871094 H 52.953125 v -1.386719 q 0,-1.796875 0.390625,-3.164062 0.390625,-1.367188 1.289062,-2.597656 0.898438,-1.230469 2.34375,-2.460938 1.464844,-1.230469 3.574219,-2.773437 1.523438,-1.09375 2.539063,-2.089844 Q 64.125,65.534083 64.75,64.537989 q 0.625,-0.996093 0.878906,-2.011718 0.273438,-1.035157 0.273438,-2.1875 z"
         style="font-style:normal;font-variant:normal;font-weight:normal;font-stretch:normal;font-family:'Segoe UI';-inkscape-font-specification:'Segoe UI'"
         id="path39" />
    </g>
  </g>
</svg>
