<?xml version="1.0" encoding="UTF-8" standalone="no"?>
<!-- Created with Inkscape (http://www.inkscape.org/) -->

<svg
   xmlns:dc="http://purl.org/dc/elements/1.1/"
   xmlns:cc="http://creativecommons.org/ns#"
   xmlns:rdf="http://www.w3.org/1999/02/22-rdf-syntax-ns#"
   xmlns:svg="http://www.w3.org/2000/svg"
   xmlns="http://www.w3.org/2000/svg"
   xmlns:sodipodi="http://sodipodi.sourceforge.net/DTD/sodipodi-0.dtd"
   xmlns:inkscape="http://www.inkscape.org/namespaces/inkscape"
   width="255.99998"
   height="255.99998"
   viewBox="0 0 67.733328 67.733331"
   version="1.1"
   id="svg8"
   inkscape:version="0.92.4 (5da689c313, 2019-01-14)"
   sodipodi:docname="3.svg">
  <defs
     id="defs2" />
  <sodipodi:namedview
     id="base"
     pagecolor="#ffffff"
     bordercolor="#666666"
     borderopacity="1.0"
     inkscape:pageopacity="0.0"
     inkscape:pageshadow="2"
     inkscape:zoom="0.90509668"
     inkscape:cx="-29.333208"
     inkscape:cy="119.15824"
     inkscape:document-units="mm"
     inkscape:current-layer="layer1"
     showgrid="false"
     units="px"
     inkscape:pagecheckerboard="true"
     fit-margin-top="0"
     fit-margin-left="0"
     fit-margin-right="0"
     fit-margin-bottom="0"
     inkscape:window-width="1920"
     inkscape:window-height="1000"
     inkscape:window-x="-11"
     inkscape:window-y="-11"
     inkscape:window-maximized="1" />
  <metadata
     id="metadata5">
    <rdf:RDF>
      <cc:Work
         rdf:about="">
        <dc:format>image/svg+xml</dc:format>
        <dc:type
           rdf:resource="http://purl.org/dc/dcmitype/StillImage" />
        <dc:title />
      </cc:Work>
    </rdf:RDF>
  </metadata>
  <g
     inkscape:label="Layer 1"
     inkscape:groupmode="layer"
     id="layer1"
     transform="translate(-56.953671,-104.27436)">
    <path
       style="fill:#ffffff;stroke-width:0.15357637"
       d="M 56.953671,104.27436 H 124.687 v 67.73333 H 56.953671 Z"
       id="rect10" />
    <g
       aria-label="3"
       transform="matrix(1.3402012,0,0,1.3402012,8.6230738,48.335895)"
       style="font-style:normal;font-weight:normal;font-size:40px;line-height:1.25;font-family:sans-serif;letter-spacing:0px;word-spacing:0px;fill:#000000;fill-opacity:1;stroke:none"
       id="flowRoot12">
      <path
         d="m 69.4375,73.073146 q 0,1.894531 -0.722656,3.457031 -0.703125,1.542969 -2.011719,2.65625 -1.289063,1.09375 -3.105469,1.699219 -1.816406,0.605468 -4.003906,0.605468 -4.003906,0 -6.367188,-1.523437 v -3.4375 q 2.832032,2.226562 6.484375,2.226562 1.464844,0 2.636719,-0.371093 1.191406,-0.371094 2.03125,-1.074219 0.859375,-0.703125 1.308594,-1.699219 0.46875,-0.996094 0.46875,-2.246094 0,-5.488281 -7.8125,-5.488281 h -2.324219 v -2.714844 h 2.207031 q 6.914063,0 6.914063,-5.15625 0,-4.765625 -5.273438,-4.765625 -2.96875,0 -5.566406,1.992188 v -3.105469 q 2.675781,-1.601562 6.367188,-1.601562 1.757812,0 3.183593,0.488281 1.425782,0.488281 2.441407,1.367187 1.015625,0.878907 1.5625,2.109375 0.566406,1.230469 0.566406,2.714844 0,5.527344 -5.585938,7.109375 v 0.07813 q 1.425782,0.15625 2.636719,0.703125 1.210938,0.527344 2.089844,1.386719 0.878906,0.859375 1.367187,2.03125 0.507813,1.152344 0.507813,2.558594 z"
         style="font-style:normal;font-variant:normal;font-weight:normal;font-stretch:normal;font-family:'Segoe UI';-inkscape-font-specification:'Segoe UI'"
         id="path17" />
    </g>
    <g
       aria-label="3"
       transform="matrix(1.3402012,0,0,1.3402012,8.6230738,48.335895)"
       style="font-style:normal;font-weight:normal;font-size:40px;line-height:1.25;font-family:sans-serif;letter-spacing:0px;word-spacing:0px;fill:#000000;fill-opacity:1;stroke:none"
       id="flowRoot26">
      <path
         d="m 69.4375,73.073146 q 0,1.894531 -0.722656,3.457031 -0.703125,1.542969 -2.011719,2.65625 -1.289063,1.09375 -3.105469,1.699219 -1.816406,0.605468 -4.003906,0.605468 -4.003906,0 -6.367188,-1.523437 v -3.4375 q 2.832032,2.226562 6.484375,2.226562 1.464844,0 2.636719,-0.371093 1.191406,-0.371094 2.03125,-1.074219 0.859375,-0.703125 1.308594,-1.699219 0.46875,-0.996094 0.46875,-2.246094 0,-5.488281 -7.8125,-5.488281 h -2.324219 v -2.714844 h 2.207031 q 6.914063,0 6.914063,-5.15625 0,-4.765625 -5.273438,-4.765625 -2.96875,0 -5.566406,1.992188 v -3.105469 q 2.675781,-1.601562 6.367188,-1.601562 1.757812,0 3.183593,0.488281 1.425782,0.488281 2.441407,1.367187 1.015625,0.878907 1.5625,2.109375 0.566406,1.230469 0.566406,2.714844 0,5.527344 -5.585938,7.109375 v 0.07813 q 1.425782,0.15625 2.636719,0.703125 1.210938,0.527344 2.089844,1.386719 0.878906,0.859375 1.367187,2.03125 0.507813,1.152344 0.507813,2.558594 z"
         style="font-style:normal;font-variant:normal;font-weight:normal;font-stretch:normal;font-family:'Segoe UI';-inkscape-font-specification:'Segoe UI'"
         id="path20" />
    </g>
  </g>
</svg>
