<?xml version="1.0" encoding="UTF-8" standalone="no"?>
<!-- Created with Inkscape (http://www.inkscape.org/) -->

<svg
   xmlns:dc="http://purl.org/dc/elements/1.1/"
   xmlns:cc="http://creativecommons.org/ns#"
   xmlns:rdf="http://www.w3.org/1999/02/22-rdf-syntax-ns#"
   xmlns:svg="http://www.w3.org/2000/svg"
   xmlns="http://www.w3.org/2000/svg"
   xmlns:sodipodi="http://sodipodi.sourceforge.net/DTD/sodipodi-0.dtd"
   xmlns:inkscape="http://www.inkscape.org/namespaces/inkscape"
   width="255.99998"
   height="255.99998"
   viewBox="0 0 67.733328 67.733331"
   version="1.1"
   id="svg8"
   inkscape:version="0.92.4 (5da689c313, 2019-01-14)"
   sodipodi:docname="5.svg">
  <defs
     id="defs2" />
  <sodipodi:namedview
     id="base"
     pagecolor="#ffffff"
     bordercolor="#666666"
     borderopacity="1.0"
     inkscape:pageopacity="0.0"
     inkscape:pageshadow="2"
     inkscape:zoom="0.90509668"
     inkscape:cx="-29.333208"
     inkscape:cy="-146.0068"
     inkscape:document-units="mm"
     inkscape:current-layer="layer1"
     showgrid="false"
     units="px"
     inkscape:pagecheckerboard="true"
     fit-margin-top="0"
     fit-margin-left="0"
     fit-margin-right="0"
     fit-margin-bottom="0"
     inkscape:window-width="1920"
     inkscape:window-height="1000"
     inkscape:window-x="-11"
     inkscape:window-y="-11"
     inkscape:window-maximized="1" />
  <metadata
     id="metadata5">
    <rdf:RDF>
      <cc:Work
         rdf:about="">
        <dc:format>image/svg+xml</dc:format>
        <dc:type
           rdf:resource="http://purl.org/dc/dcmitype/StillImage" />
        <dc:title />
      </cc:Work>
    </rdf:RDF>
  </metadata>
  <g
     inkscape:label="Layer 1"
     inkscape:groupmode="layer"
     id="layer1"
     transform="translate(-56.953671,-104.27436)">
    <path
       style="fill:#ffffff;stroke-width:0.15357637"
       d="M 56.953671,104.27436 H 124.687 v 67.73333 H 56.953671 Z"
       id="rect10" />
    <g
       aria-label="5"
       transform="matrix(1.3402012,0,0,1.3402012,7.8770633,48.021785)"
       style="font-style:normal;font-weight:normal;font-size:40px;line-height:1.25;font-family:sans-serif;letter-spacing:0px;word-spacing:0px;fill:#000000;fill-opacity:1;stroke:none"
       id="flowRoot12">
      <path
         d="m 69.75,72.448146 q 0,2.050781 -0.703125,3.710937 -0.703125,1.660156 -2.011719,2.851563 -1.289062,1.191406 -3.125,1.835937 -1.835937,0.644531 -4.082031,0.644531 -3.90625,0 -5.800781,-1.171875 v -3.398437 q 2.851562,1.835937 5.839843,1.835937 1.523438,0 2.734375,-0.449218 1.230469,-0.449219 2.089844,-1.25 Q 65.550781,76.256739 66,75.123927 q 0.46875,-1.132813 0.46875,-2.480469 0,-2.734375 -1.835938,-4.277344 -1.835937,-1.5625 -5.332031,-1.5625 -0.566406,0 -1.191406,0.01953 -0.625,0.01953 -1.25,0.05859 -0.625,0.01953 -1.230469,0.05859 -0.585937,0.03906 -1.074219,0.09766 l 0.957032,-14.042968 h 12.949218 v 2.890625 H 58.285156 l -0.566406,8.222656 q 0.625,-0.03906 1.328125,-0.05859 0.703125,-0.03906 1.25,-0.03906 2.226562,0 3.984375,0.585937 1.757812,0.585938 2.96875,1.679688 1.230469,1.074218 1.855469,2.65625 0.644531,1.5625 0.644531,3.515625 z"
         style="font-style:normal;font-variant:normal;font-weight:normal;font-stretch:normal;font-family:'Segoe UI';-inkscape-font-specification:'Segoe UI'"
         id="path17" />
    </g>
    <g
       transform="matrix(1.3402012,0,0,1.3402012,8.6230738,48.335895)"
       style="font-style:normal;font-weight:normal;font-size:40px;line-height:1.25;font-family:sans-serif;letter-spacing:0px;word-spacing:0px;fill:#000000;fill-opacity:1;stroke:none"
       id="flowRoot26" />
  </g>
</svg>
