<?xml version="1.0" encoding="UTF-8" standalone="no"?>
<!-- Created with Inkscape (http://www.inkscape.org/) -->

<svg
   xmlns:dc="http://purl.org/dc/elements/1.1/"
   xmlns:cc="http://creativecommons.org/ns#"
   xmlns:rdf="http://www.w3.org/1999/02/22-rdf-syntax-ns#"
   xmlns:svg="http://www.w3.org/2000/svg"
   xmlns="http://www.w3.org/2000/svg"
   xmlns:sodipodi="http://sodipodi.sourceforge.net/DTD/sodipodi-0.dtd"
   xmlns:inkscape="http://www.inkscape.org/namespaces/inkscape"
   width="255.99998"
   height="255.99998"
   viewBox="0 0 67.733328 67.733331"
   version="1.1"
   id="svg8"
   inkscape:version="0.92.4 (5da689c313, 2019-01-14)"
   sodipodi:docname="8.svg">
  <defs
     id="defs2" />
  <sodipodi:namedview
     id="base"
     pagecolor="#ffffff"
     bordercolor="#666666"
     borderopacity="1.0"
     inkscape:pageopacity="0.0"
     inkscape:pageshadow="2"
     inkscape:zoom="0.90509668"
     inkscape:cx="-29.333208"
     inkscape:cy="-146.0068"
     inkscape:document-units="mm"
     inkscape:current-layer="layer1"
     showgrid="false"
     units="px"
     inkscape:pagecheckerboard="true"
     fit-margin-top="0"
     fit-margin-left="0"
     fit-margin-right="0"
     fit-margin-bottom="0"
     inkscape:window-width="1920"
     inkscape:window-height="1000"
     inkscape:window-x="-11"
     inkscape:window-y="-11"
     inkscape:window-maximized="1" />
  <metadata
     id="metadata5">
    <rdf:RDF>
      <cc:Work
         rdf:about="">
        <dc:format>image/svg+xml</dc:format>
        <dc:type
           rdf:resource="http://purl.org/dc/dcmitype/StillImage" />
        <dc:title />
      </cc:Work>
    </rdf:RDF>
  </metadata>
  <g
     inkscape:label="Layer 1"
     inkscape:groupmode="layer"
     id="layer1"
     transform="translate(-56.953671,-104.27436)">
    <path
       style="fill:#ffffff;stroke-width:0.15357637"
       d="M 56.953671,104.27436 H 124.687 v 67.73333 H 56.953671 Z"
       id="rect10" />
    <g
       aria-label="8"
       transform="matrix(1.3402012,0,0,1.3402012,8.1780851,48.36207)"
       style="font-style:normal;font-weight:normal;font-size:40px;line-height:1.25;font-family:sans-serif;letter-spacing:0px;word-spacing:0px;fill:#000000;fill-opacity:1;stroke:none"
       id="flowRoot12">
      <path
         d="m 52.582031,73.190333 q 0,-1.113281 0.351563,-2.226562 0.351562,-1.132813 0.996093,-2.109375 0.664063,-0.976563 1.621094,-1.777344 0.976563,-0.800781 2.207031,-1.269531 -1.816406,-1.015625 -2.890625,-2.597657 -1.074218,-1.601562 -1.074218,-3.535156 0,-1.542969 0.585937,-2.851562 0.605469,-1.308594 1.660156,-2.265625 1.054688,-0.957032 2.5,-1.484375 1.445313,-0.546875 3.125,-0.546875 1.699219,0 3.144532,0.546875 1.445312,0.546875 2.5,1.503906 1.054687,0.957031 1.640625,2.265625 0.585937,1.308594 0.585937,2.832031 0,1.933594 -1.074219,3.535156 -1.074218,1.582032 -2.851562,2.597657 1.210937,0.46875 2.167969,1.269531 0.957031,0.800781 1.601562,1.777344 0.664063,0.976562 1.015625,2.109375 0.351563,1.113281 0.351563,2.226562 0,1.835938 -0.664063,3.359375 -0.664062,1.523438 -1.875,2.617188 -1.191406,1.074218 -2.871094,1.679687 -1.660156,0.605469 -3.671875,0.605469 -1.992187,0 -3.652343,-0.605469 -1.660157,-0.605469 -2.871094,-1.679687 -1.210938,-1.09375 -1.894531,-2.617188 -0.664063,-1.523437 -0.664063,-3.359375 z m 3.476563,-0.273437 q 0,1.308593 0.390625,2.363281 0.410156,1.054687 1.132812,1.796875 0.742188,0.742187 1.777344,1.152344 1.054687,0.390625 2.324219,0.390625 1.230468,0 2.265625,-0.410157 1.035156,-0.410156 1.777343,-1.152343 0.761719,-0.742188 1.171875,-1.796875 0.429688,-1.054688 0.429688,-2.34375 0,-1.171875 -0.410156,-2.1875 -0.390625,-1.035157 -1.132813,-1.816407 -0.742187,-0.78125 -1.777344,-1.230468 -1.035156,-0.449219 -2.324218,-0.449219 -1.210938,0 -2.246094,0.429687 -1.015625,0.410157 -1.777344,1.171875 -0.742187,0.742188 -1.171875,1.796875 -0.429687,1.035157 -0.429687,2.285157 z m 0.996093,-12.988282 q 0,0.996094 0.351563,1.855469 0.371094,0.839844 0.996094,1.484375 0.644531,0.625 1.484375,0.996094 0.839843,0.351562 1.796875,0.351562 0.957031,0 1.796875,-0.371093 0.859375,-0.371094 1.484375,-0.996094 0.625,-0.644531 0.996093,-1.484375 0.371094,-0.859375 0.371094,-1.835938 0,-1.015625 -0.371094,-1.875 -0.351562,-0.859375 -0.976562,-1.484375 -0.625,-0.625 -1.484375,-0.976562 -0.839844,-0.371094 -1.816406,-0.371094 -1.035157,0 -1.894532,0.371094 -0.839843,0.371094 -1.464843,1.015625 -0.605469,0.625 -0.9375,1.484375 -0.332032,0.859375 -0.332032,1.835937 z"
         style="font-style:normal;font-variant:normal;font-weight:normal;font-stretch:normal;font-family:'Segoe UI';-inkscape-font-specification:'Segoe UI'"
         id="path17" />
    </g>
    <g
       transform="matrix(1.3402012,0,0,1.3402012,8.6230738,48.335895)"
       style="font-style:normal;font-weight:normal;font-size:40px;line-height:1.25;font-family:sans-serif;letter-spacing:0px;word-spacing:0px;fill:#000000;fill-opacity:1;stroke:none"
       id="flowRoot26" />
  </g>
</svg>
