<?xml version="1.0" encoding="UTF-8" standalone="no"?>
<!-- Created with Inkscape (http://www.inkscape.org/) -->

<svg
   xmlns:dc="http://purl.org/dc/elements/1.1/"
   xmlns:cc="http://creativecommons.org/ns#"
   xmlns:rdf="http://www.w3.org/1999/02/22-rdf-syntax-ns#"
   xmlns:svg="http://www.w3.org/2000/svg"
   xmlns="http://www.w3.org/2000/svg"
   xmlns:sodipodi="http://sodipodi.sourceforge.net/DTD/sodipodi-0.dtd"
   xmlns:inkscape="http://www.inkscape.org/namespaces/inkscape"
   width="255.99998"
   height="255.99998"
   viewBox="0 0 67.733328 67.733331"
   version="1.1"
   id="svg8"
   inkscape:version="0.92.4 (5da689c313, 2019-01-14)"
   sodipodi:docname="9.svg">
  <defs
     id="defs2" />
  <sodipodi:namedview
     id="base"
     pagecolor="#ffffff"
     bordercolor="#666666"
     borderopacity="1.0"
     inkscape:pageopacity="0.0"
     inkscape:pageshadow="2"
     inkscape:zoom="0.90509668"
     inkscape:cx="-29.333208"
     inkscape:cy="-146.0068"
     inkscape:document-units="mm"
     inkscape:current-layer="layer1"
     showgrid="false"
     units="px"
     inkscape:pagecheckerboard="true"
     fit-margin-top="0"
     fit-margin-left="0"
     fit-margin-right="0"
     fit-margin-bottom="0"
     inkscape:window-width="1920"
     inkscape:window-height="1000"
     inkscape:window-x="-11"
     inkscape:window-y="-11"
     inkscape:window-maximized="1" />
  <metadata
     id="metadata5">
    <rdf:RDF>
      <cc:Work
         rdf:about="">
        <dc:format>image/svg+xml</dc:format>
        <dc:type
           rdf:resource="http://purl.org/dc/dcmitype/StillImage" />
        <dc:title />
      </cc:Work>
    </rdf:RDF>
  </metadata>
  <g
     inkscape:label="Layer 1"
     inkscape:groupmode="layer"
     id="layer1"
     transform="translate(-56.953671,-104.27436)">
    <path
       style="fill:#ffffff;stroke-width:0.15357637"
       d="M 56.953671,104.27436 H 124.687 v 67.73333 H 56.953671 Z"
       id="rect10" />
    <g
       aria-label="9"
       transform="matrix(1.3402012,0,0,1.3402012,8.3351399,48.335895)"
       style="font-style:normal;font-weight:normal;font-size:40px;line-height:1.25;font-family:sans-serif;letter-spacing:0px;word-spacing:0px;fill:#000000;fill-opacity:1;stroke:none"
       id="flowRoot12">
      <path
         d="m 70.433594,65.319239 q 0,3.847657 -0.761719,6.855469 -0.761719,2.988281 -2.226563,5.078125 -1.464843,2.070313 -3.574218,3.164063 -2.109375,1.074218 -4.804688,1.074218 -2.773437,0 -4.882812,-0.976562 v -3.066406 q 2.324218,1.308593 4.960937,1.308593 1.894531,0 3.378906,-0.78125 1.503907,-0.78125 2.539063,-2.265625 1.035156,-1.503906 1.582031,-3.691406 0.546875,-2.1875 0.546875,-5.019531 h -0.07813 q -1.796875,3.613281 -6.25,3.613281 -1.796875,0 -3.300781,-0.625 -1.503906,-0.644531 -2.597656,-1.796875 -1.09375,-1.171875 -1.699219,-2.773437 -0.605469,-1.601563 -0.605469,-3.535157 0,-2.070312 0.664063,-3.789062 0.683593,-1.71875 1.875,-2.949219 1.210937,-1.25 2.851562,-1.933594 1.660156,-0.683593 3.613281,-0.683593 2.109375,0 3.730469,0.859375 1.640625,0.839843 2.753906,2.480468 1.113282,1.621094 1.699219,4.003907 0.585938,2.382812 0.585938,5.449218 z m -3.457032,-2.871093 q 0,-1.621094 -0.429687,-2.949219 -0.410156,-1.328125 -1.152344,-2.265625 -0.742187,-0.957031 -1.777344,-1.464844 -1.015625,-0.527344 -2.226562,-0.527344 -1.152344,0 -2.148438,0.46875 -0.996093,0.449219 -1.738281,1.289063 -0.722656,0.820312 -1.152344,1.972656 -0.410156,1.132813 -0.410156,2.480469 0,1.484375 0.390625,2.65625 0.410156,1.171875 1.152344,1.992187 0.742187,0.800782 1.777344,1.230469 1.054687,0.429688 2.324218,0.429688 1.113282,0 2.089844,-0.410157 0.996094,-0.429687 1.71875,-1.132812 0.742188,-0.722656 1.152344,-1.679688 0.429687,-0.976562 0.429687,-2.089843 z"
         style="font-style:normal;font-variant:normal;font-weight:normal;font-stretch:normal;font-family:'Segoe UI';-inkscape-font-specification:'Segoe UI'"
         id="path17" />
    </g>
    <g
       transform="matrix(1.3402012,0,0,1.3402012,8.6230738,48.335895)"
       style="font-style:normal;font-weight:normal;font-size:40px;line-height:1.25;font-family:sans-serif;letter-spacing:0px;word-spacing:0px;fill:#000000;fill-opacity:1;stroke:none"
       id="flowRoot26" />
  </g>
</svg>
